<svg xmlns="http://www.w3.org/2000/svg" version="1.1" xmlns:xlink="http://www.w3.org/1999/xlink" xmlns:svgjs="http://svgjs.dev/svgjs" width="1500" height="1556" viewBox="0 0 1500 1556"><g transform="matrix(1,0,0,1,0.5374543411794548,0.6299595141699683)"><svg viewBox="0 0 238 247" data-background-color="#ffffff" preserveAspectRatio="xMidYMid meet" height="1556" width="1500" xmlns="http://www.w3.org/2000/svg" xmlns:xlink="http://www.w3.org/1999/xlink"><g id="tight-bounds" transform="matrix(1,0,0,1,-0.08527608880046955,-0.09999999999999432)"><svg viewBox="0 0 238.17055217760094 247.2" height="247.2" width="238.17055217760094"><g><svg viewBox="0 0 397.4975999999999 412.5674052547336" height="247.2" width="238.17055217760094"><g><rect width="397.4975999999999" height="8.60156819531818" x="0" y="230.76373577699158" fill="#000000" opacity="1" stroke-width="0" stroke="transparent" fill-opacity="1" class="rect-qz-0" data-fill-palette-color="secondary" rx="1%" id="qz-0" data-palette-color="#000000"></rect></g><g transform="matrix(1,0,0,1,0.9887999999999693,261.8824982008914)"><svg viewBox="0 0 395.52 150.6849070538422" height="150.6849070538422" width="395.52"><g id="textblocktransform"><svg viewBox="0 0 395.52 150.6849070538422" height="150.6849070538422" width="395.52" id="textblock"><g><svg viewBox="0 0 395.52 95.38112399643175" height="95.38112399643175" width="395.52"><g transform="matrix(1,0,0,1,0,0)"><svg width="395.52" viewBox="1.51 -37.55 164.20000000000002 39.599999999999994" height="95.38112399643175" data-palette-color="#000000"><path d="M23.05-28.86L23.05-28.86Q23.05-25.49 21.39-22.73 19.73-19.97 16.94-18.12L16.94-18.12Q18.41-17.82 19.48-17.11 20.56-16.41 21.26-15.38 21.97-14.36 22.34-13.06 22.71-11.77 22.71-10.35L22.71-10.35Q22.71-7.57 21.41-5.49 20.12-3.42 18.07-2.08 16.02-0.73 13.5-0.07 10.99 0.59 8.5 0.59L8.5 0.59Q7.13 0.59 5.76 0.39 4.39 0.2 3.17-0.29L3.17-0.29Q2.73-0.44 2.44-1.49 2.15-2.54 1.98-4.05 1.81-5.57 1.71-7.32 1.61-9.08 1.56-10.69 1.51-12.3 1.51-13.53 1.51-14.75 1.51-15.23L1.51-15.23Q1.51-16.94 1.51-18.68 1.51-20.41 1.61-22.12L1.61-22.12Q1.61-22.56 1.64-23.49 1.66-24.41 1.68-25.56 1.71-26.71 1.78-27.98 1.86-29.25 1.98-30.35 2.1-31.45 2.32-32.23 2.54-33.01 2.83-33.2L2.83-33.2Q3.96-33.94 5.32-34.59 6.69-35.25 8.15-35.74 9.62-36.23 11.08-36.52 12.55-36.82 13.87-36.82L13.87-36.82Q15.67-36.82 17.36-36.3 19.04-35.79 20.29-34.77 21.53-33.74 22.29-32.25 23.05-30.76 23.05-28.86ZM14.94-26.27L14.94-26.27Q14.94-27.1 14.43-27.49 13.92-27.88 13.09-27.88L13.09-27.88Q12.4-27.88 11.65-27.59 10.89-27.29 10.35-26.81L10.35-26.81Q10.21-26.66 10.08-25.98 9.96-25.29 9.89-24.44 9.81-23.58 9.79-22.83 9.77-22.07 9.77-21.83L9.77-21.83Q9.77-21.73 9.77-21.51 9.77-21.29 9.79-21.04 9.81-20.8 9.86-20.61 9.91-20.41 10.01-20.41L10.01-20.41Q10.84-20.41 11.72-21.02 12.6-21.63 13.31-22.53 14.01-23.44 14.48-24.46 14.94-25.49 14.94-26.27ZM14.75-12.16L14.75-12.16Q14.75-12.99 14.16-13.33 13.57-13.67 12.84-13.67L12.84-13.67Q12.16-13.67 11.4-13.35 10.64-13.04 10.16-12.6L10.16-12.6Q10.01-12.5 9.94-12.11 9.86-11.72 9.84-11.25 9.81-10.79 9.79-10.38 9.77-9.96 9.77-9.81L9.77-9.81Q9.77-9.72 9.77-9.42 9.77-9.13 9.79-8.81 9.81-8.5 9.89-8.23 9.96-7.96 10.06-7.96L10.06-7.96Q10.74-7.96 11.57-8.35 12.4-8.74 13.11-9.33 13.82-9.91 14.28-10.67 14.75-11.43 14.75-12.16ZM49.9-7.23L49.9-7.23Q49.9-6.25 49.73-4.88 49.56-3.52 49.07-2.27 48.58-1.03 47.75-0.17 46.92 0.68 45.55 0.68L45.55 0.68Q43.75 0.68 42.84-0.63 41.94-1.95 41.55-3.78 41.16-5.62 41.09-7.52 41.01-9.42 40.96-10.55L40.96-10.55Q37.45-9.96 34.03-9.52L34.03-9.52Q33.93-8.4 33.62-6.74 33.3-5.08 32.64-3.54 31.98-2 30.93-0.88 29.88 0.24 28.37 0.24L28.37 0.24Q27.19 0.24 26.54-0.61 25.88-1.46 25.53-2.64 25.19-3.81 25.12-5.05 25.05-6.3 25.05-7.13L25.05-7.13Q25.05-9.91 25.49-12.62 25.93-15.33 26.51-18.02L26.51-18.02Q26.8-19.43 27.29-21.34 27.78-23.24 28.49-25.27 29.2-27.29 30.15-29.27 31.1-31.25 32.32-32.81 33.54-34.38 35.1-35.35 36.67-36.33 38.57-36.33L38.57-36.33Q40.43-36.33 41.79-35.5 43.16-34.67 44.19-33.3 45.21-31.93 45.9-30.2 46.58-28.47 47.04-26.68 47.51-24.9 47.82-23.19 48.14-21.48 48.39-20.17L48.39-20.17Q49.02-16.99 49.46-13.75 49.9-10.5 49.9-7.23ZM40.48-17.68L40.48-19.09Q40.48-19.68 40.4-21.02 40.33-22.36 40.09-23.71 39.84-25.05 39.33-26.1 38.82-27.15 37.94-27.15L37.94-27.15Q37.45-27.15 37.01-26.49 36.57-25.83 36.23-24.83 35.89-23.83 35.62-22.61 35.35-21.39 35.15-20.26 34.96-19.14 34.86-18.24 34.76-17.33 34.71-16.94L34.71-16.94Q37.64-17.19 40.48-17.68L40.48-17.68ZM73.09-32.32L73.09-32.32Q73.09-32.08 72.63-30.91 72.16-29.74 71.38-28.03 70.6-26.32 69.6-24.19 68.6-22.07 67.52-19.85 66.45-17.63 65.42-15.48 64.4-13.33 63.54-11.6 62.69-9.86 62.1-8.67 61.52-7.47 61.37-7.18L61.37-7.18Q62.89-7.67 64.47-7.98 66.06-8.3 67.67-8.3L67.67-8.3Q68.45-8.3 69.33-8.18 70.21-8.06 70.97-7.69 71.72-7.32 72.24-6.71 72.75-6.1 72.75-5.08L72.75-5.08Q72.75-4 72.02-3.15 71.28-2.29 70.14-1.66 68.99-1.03 67.52-0.59 66.06-0.15 64.59 0.15 63.13 0.44 61.81 0.56 60.49 0.68 59.61 0.68L59.61 0.68Q58.49 0.68 57.15 0.59 55.81 0.49 54.58 0.05 53.36-0.39 52.56-1.25 51.75-2.1 51.75-3.66L51.75-3.66Q51.75-4.74 52.36-6.57 52.97-8.4 53.8-10.33 54.63-12.26 55.54-14.04 56.44-15.82 56.98-16.85L56.98-16.85Q58.64-19.92 60.32-22.97 62.01-26.03 63.62-29.15L63.62-29.15Q61.91-28.17 59.71-27.37 57.51-26.56 55.56-26.56L55.56-26.56Q54.88-26.56 54.12-26.76 53.36-26.95 52.75-27.32 52.14-27.69 51.75-28.27 51.36-28.86 51.36-29.64L51.36-29.64Q51.36-30.91 52.19-31.98 53.02-33.06 54.37-33.94 55.71-34.81 57.39-35.5 59.08-36.18 60.79-36.62 62.5-37.06 64.03-37.3 65.57-37.55 66.65-37.55L66.65-37.55Q69.48-37.55 71.28-36.43 73.09-35.3 73.09-32.32ZM94.52-32.32L94.52-32.32Q94.52-32.08 94.06-30.91 93.6-29.74 92.81-28.03 92.03-26.32 91.03-24.19 90.03-22.07 88.96-19.85 87.88-17.63 86.86-15.48 85.83-13.33 84.98-11.6 84.12-9.86 83.54-8.67 82.95-7.47 82.81-7.18L82.81-7.18Q84.32-7.67 85.91-7.98 87.49-8.3 89.1-8.3L89.1-8.3Q89.89-8.3 90.76-8.18 91.64-8.06 92.4-7.69 93.16-7.32 93.67-6.71 94.18-6.1 94.18-5.08L94.18-5.08Q94.18-4 93.45-3.15 92.72-2.29 91.57-1.66 90.42-1.03 88.96-0.59 87.49-0.15 86.03 0.15 84.56 0.44 83.24 0.56 81.93 0.68 81.05 0.68L81.05 0.68Q79.92 0.68 78.58 0.59 77.24 0.49 76.02 0.05 74.8-0.39 73.99-1.25 73.19-2.1 73.19-3.66L73.19-3.66Q73.19-4.74 73.8-6.57 74.41-8.4 75.24-10.33 76.07-12.26 76.97-14.04 77.87-15.82 78.41-16.85L78.41-16.85Q80.07-19.92 81.76-22.97 83.44-26.03 85.05-29.15L85.05-29.15Q83.34-28.17 81.14-27.37 78.95-26.56 76.99-26.56L76.99-26.56Q76.31-26.56 75.55-26.76 74.8-26.95 74.19-27.32 73.58-27.69 73.19-28.27 72.8-28.86 72.8-29.64L72.8-29.64Q72.8-30.91 73.63-31.98 74.46-33.06 75.8-33.94 77.14-34.81 78.83-35.5 80.51-36.18 82.22-36.62 83.93-37.06 85.47-37.3 87-37.55 88.08-37.55L88.08-37.55Q90.91-37.55 92.72-36.43 94.52-35.3 94.52-32.32ZM120.11-7.23L120.11-7.23Q120.11-6.25 119.94-4.88 119.77-3.52 119.28-2.27 118.79-1.03 117.96-0.17 117.13 0.68 115.76 0.68L115.76 0.68Q113.95 0.68 113.05-0.63 112.15-1.95 111.76-3.78 111.37-5.62 111.29-7.52 111.22-9.42 111.17-10.55L111.17-10.55Q107.66-9.96 104.24-9.52L104.24-9.52Q104.14-8.4 103.82-6.74 103.51-5.08 102.85-3.54 102.19-2 101.14-0.88 100.09 0.24 98.57 0.24L98.57 0.24Q97.4 0.24 96.74-0.61 96.08-1.46 95.74-2.64 95.4-3.81 95.33-5.05 95.25-6.3 95.25-7.13L95.25-7.13Q95.25-9.91 95.69-12.62 96.13-15.33 96.72-18.02L96.72-18.02Q97.01-19.43 97.5-21.34 97.99-23.24 98.7-25.27 99.4-27.29 100.36-29.27 101.31-31.25 102.53-32.81 103.75-34.38 105.31-35.35 106.87-36.33 108.78-36.33L108.78-36.33Q110.63-36.33 112-35.5 113.37-34.67 114.39-33.3 115.42-31.93 116.1-30.2 116.79-28.47 117.25-26.68 117.71-24.9 118.03-23.19 118.35-21.48 118.59-20.17L118.59-20.17Q119.23-16.99 119.67-13.75 120.11-10.5 120.11-7.23ZM110.68-17.68L110.68-19.09Q110.68-19.68 110.61-21.02 110.54-22.36 110.29-23.71 110.05-25.05 109.54-26.1 109.02-27.15 108.14-27.15L108.14-27.15Q107.66-27.15 107.22-26.49 106.78-25.83 106.44-24.83 106.09-23.83 105.82-22.61 105.56-21.39 105.36-20.26 105.17-19.14 105.07-18.24 104.97-17.33 104.92-16.94L104.92-16.94Q107.85-17.19 110.68-17.68L110.68-17.68ZM147.11-25.68L147.11-25.68Q147.11-22.31 145.54-19.63 143.98-16.94 141.39-14.89L141.39-14.89Q142.18-13.72 143.01-12.16 143.84-10.6 144.49-8.86 145.15-7.13 145.57-5.4 145.98-3.66 145.98-2.2L145.98-2.2Q145.98-0.63 145.23 0.61 144.47 1.86 142.66 1.86L142.66 1.86Q141.15 1.86 140.05 0.39 138.95-1.07 138.1-3.1 137.24-5.13 136.54-7.23 135.83-9.33 135.19-10.6L135.19-10.6Q134.31-10.3 133.48-9.94 132.65-9.57 131.77-9.23L131.77-9.23Q131.73-8.15 131.6-6.27 131.48-4.39 131.07-2.54 130.65-0.68 129.82 0.68 128.99 2.05 127.53 2.05L127.53 2.05Q125.92 2.05 125.04 0.73 124.16-0.59 123.79-2.39 123.43-4.2 123.38-6.08 123.33-7.96 123.33-9.03L123.33-9.03Q123.33-11.33 123.43-13.55 123.52-15.77 123.52-18.07L123.52-18.07Q123.52-20.17 123.45-22.27 123.38-24.37 123.38-26.51L123.38-26.51Q123.38-27 123.38-27.76 123.38-28.52 123.45-29.32 123.52-30.13 123.62-30.86 123.72-31.59 123.96-32.03L123.96-32.03Q124.45-33.06 126.18-33.98 127.92-34.91 129.99-35.62 132.07-36.33 134.05-36.74 136.02-37.16 137-37.16L137-37.16Q139.49-37.16 141.39-36.23 143.3-35.3 144.57-33.72 145.84-32.13 146.47-30.05 147.11-27.98 147.11-25.68ZM138.07-25L138.07-25Q138.07-26.27 137.49-26.93 136.9-27.59 135.58-27.59L135.58-27.59Q134.61-27.59 133.61-27.25 132.6-26.9 131.77-26.46L131.77-26.46Q131.97-22.61 131.92-18.8L131.92-18.8Q132.95-19.14 134.02-19.68 135.09-20.21 136-21 136.9-21.78 137.49-22.75 138.07-23.73 138.07-25ZM165.71-33.15L165.71-33.15Q165.71-32.23 165.29-31.49 164.88-30.76 164.19-30.25 163.51-29.74 162.68-29.39 161.85-29.05 161.07-28.91L161.07-28.91Q160.97-23.39 160.65-18.26 160.34-13.13 159.65-7.67L159.65-7.67 159.95-7.67Q160.73-7.67 161.48-7.5 162.24-7.32 162.85-6.91 163.46-6.49 163.83-5.88 164.19-5.27 164.19-4.39L164.19-4.39Q164.19-3.27 163.49-2.44 162.78-1.61 161.63-1.03 160.48-0.44 159.07-0.05 157.65 0.34 156.24 0.56 154.82 0.78 153.55 0.88 152.28 0.98 151.5 0.98L151.5 0.98Q150.91 0.98 150.06 0.93 149.2 0.88 148.45 0.63 147.69 0.39 147.15-0.1 146.62-0.59 146.62-1.42L146.62-1.42Q146.62-2.44 147.03-3.25 147.45-4.05 148.13-4.69 148.81-5.32 149.67-5.71 150.52-6.1 151.4-6.3L151.4-6.3Q151.74-8.98 152.04-11.65 152.33-14.31 152.43-17.04L152.43-17.04Q152.52-19.82 152.62-22.53 152.72-25.24 152.82-27.98L152.82-27.98Q152.48-27.93 152.18-27.91 151.89-27.88 151.65-27.88L151.65-27.88Q150.96-27.88 150.18-28.03 149.4-28.17 148.72-28.54 148.03-28.91 147.57-29.44 147.1-29.98 147.1-30.81L147.1-30.81Q147.1-32.47 148.5-33.54 149.89-34.62 151.82-35.21 153.74-35.79 155.75-36.01 157.75-36.23 158.97-36.23L158.97-36.23Q159.65-36.23 160.78-36.13 161.9-36.04 163-35.69 164.1-35.35 164.9-34.77 165.71-34.18 165.71-33.15Z" opacity="1" transform="matrix(1,0,0,1,0,0)" fill="#000000" class="wordmark-text-0" data-fill-palette-color="primary" id="text-0"></path></svg></g></svg></g><g transform="matrix(1,0,0,1,75.54432,117.89831822501338)"><svg viewBox="0 0 244.43135999999998 32.786588828828826" height="32.786588828828826" width="244.43135999999998"><g transform="matrix(1,0,0,1,0,0)"><svg width="244.43135999999998" viewBox="3.25 -35.5 349.61 46.9" height="32.786588828828826" data-palette-color="#000000"><path d="M7.9-23.75L7.9 0 3.25 0 3.25-23.85Q3.25-29 6.58-32.25 9.9-35.5 14.8-35.5L14.8-35.5Q20.2-35.5 22.93-32.77 25.65-30.05 25.65-26.1L25.65-26.1Q25.65-21.05 20.95-18.85L20.95-18.85 20.95-18.65Q27.4-16.8 27.4-9.7L27.4-9.7Q27.4 0 15.95 0L15.95 0 9.7 0 9.7-4.4 15.9-4.4Q19.35-4.4 20.95-5.8 22.55-7.2 22.55-10.3L22.55-10.3Q22.55-13 20.83-14.45 19.1-15.9 16.15-15.9L16.15-15.9 11.2-15.9 11.2-20.05 14.4-20.05Q17.1-20.05 19.03-21.53 20.95-23 20.95-25.5L20.95-25.5Q20.95-27.9 19.48-29.5 18-31.1 14.7-31.1L14.7-31.1Q11.7-31.1 9.8-29.23 7.9-27.35 7.9-23.75L7.9-23.75ZM52.55-24L52.55 0 43.9 0Q38.35 0 35.95-1.65L35.95-1.65Q33.8-3.1 33.22-5.13 32.65-7.15 32.65-10.45L32.65-10.45 32.65-24 37.05-24 37.05-10.5Q37.05-9.6 37.1-8.97 37.15-8.35 37.45-7.38 37.75-6.4 38.3-5.78 38.85-5.15 39.9-4.67 40.95-4.2 42.45-4.2L42.45-4.2 48.15-4.2 48.15-24 52.55-24ZM58.05-11.65L58.05-24 62.45-24 62.45-11.45Q62.45-7.4 63.7-5.8 64.95-4.2 68.3-4.2L68.3-4.2 73.55-4.2 73.55-24 77.95-24 77.95-1.2Q77.95 5.05 74.67 8.22 71.4 11.4 64.39 11.4L64.39 11.4 60.8 11.4 60.8 7.2 63.95 7.2Q73.09 7.2 73.55 0L73.55 0 69.34 0Q62.8 0 60.42-2.3 58.05-4.6 58.05-11.65L58.05-11.65ZM84.89 7.75L84.89 7.75 82.39 6.15Q84.29 2.45 84.59 0L84.59 0 81.19 0 83.19-4.2 89.74-4.2Q89.74 2.8 84.89 7.75ZM115.14-35L124.29-35 124.29-30.6 115.44-30.6Q110.39-30.6 110.39-26.5L110.39-26.5Q110.39-24.3 112.61-22.78 114.84-21.25 118.64-19.85L118.64-19.85Q120.34-19.2 121.54-18.53 122.74-17.85 123.94-16.75 125.14-15.65 125.74-13.93 126.34-12.2 126.34-9.95L126.34-9.95Q126.34-7.45 125.29-5.48 124.24-3.5 122.59-2.38 120.94-1.25 119.21-0.68 117.49-0.1 115.84-0.05L115.84-0.05Q115.14 0 113.84 0L113.84 0 106.04 0 106.04-4.4 113.69-4.4Q117.09-4.4 119.24-5.83 121.39-7.25 121.39-10L121.39-10Q121.39-11.35 120.79-12.38 120.19-13.4 119.06-14.15 117.94-14.9 116.76-15.45 115.59-16 113.94-16.6L113.94-16.6Q113.49-16.75 113.24-16.85L113.24-16.85Q105.39-19.85 105.39-26.65L105.39-26.65Q105.39-30.85 108.09-32.93 110.79-35 115.14-35L115.14-35ZM143.09-24.5L143.09-24.5Q151.59-24.15 151.59-17.45L151.59-17.45Q151.59-9.1 140.64-9.1L140.64-9.1 138.59-9.1 138.59-12.95 140.99-12.95Q144.34-12.95 145.64-13.98 146.94-15 146.94-17.4L146.94-17.4Q146.94-18.95 145.79-19.73 144.64-20.5 142.84-20.5L142.84-20.5Q139.29-20.5 137.26-18 135.24-15.5 135.24-12L135.24-12Q135.24-8.3 137.41-6 139.59-3.7 143.09-3.7L143.09-3.7Q146.24-3.7 148.24-5.25L148.24-5.25 151.24-2.3Q147.79 0.5 143.09 0.5L143.09 0.5Q137.39 0.5 133.99-2.85 130.59-6.2 130.59-11.5L130.59-11.5Q130.59-17.4 133.94-21.05 137.29-24.7 143.09-24.5ZM156.58-9.5L156.58-9.5 156.58-35 161.08-35 161.08-9.5Q161.08-7.7 161.51-6.58 161.93-5.45 162.83-4.98 163.73-4.5 164.58-4.35 165.43-4.2 166.83-4.2L166.83-4.2 166.83 0Q161.23 0 158.91-2.15 156.58-4.3 156.58-9.5ZM170.08-9.5L170.08-9.5 170.08-35 174.58-35 174.58-9.5Q174.58-7.7 175.01-6.58 175.43-5.45 176.33-4.98 177.23-4.5 178.08-4.35 178.93-4.2 180.33-4.2L180.33-4.2 180.33 0Q174.73 0 172.41-2.15 170.08-4.3 170.08-9.5ZM206.98-35.5L206.98-35.5Q216.18-35.5 216.58-27.15L216.58-27.15 211.83-27.15Q211.38-31.05 206.33-31.1L206.33-31.1Q200.83-31.1 200.83-26.5L200.83-26.5Q200.83-23.15 202.88-21.98 204.93-20.8 207.58-20.8L207.58-20.8 220.53-20.8 220.53-16.4 217.73-16.4 217.73-9.95Q217.58-6.85 216.6-4.9 215.63-2.95 214.43-1.95 213.23-0.95 211.58-0.35 209.93 0.25 208.78 0.38 207.63 0.5 206.38 0.5L206.38 0.5Q200.33 0.5 197.28-3L197.28-3Q194.98-5.55 194.98-9.95L194.98-9.95Q194.98-13 196.6-15.35 198.23-17.7 201.48-18.6L201.48-18.6 201.48-18.8Q196.13-20.65 196.13-27.15L196.13-27.15Q196.13-30.85 198.48-33.1L198.48-33.1Q200.08-34.6 202.08-35.05 204.08-35.5 206.98-35.5ZM206.68-3.9L206.68-3.9Q209.28-3.9 211.05-5.3 212.83-6.7 213.03-10.3L213.03-10.3 213.08-10.3 213.08-16.4 208.18-16.4Q203.83-16.4 201.75-15.05 199.68-13.7 199.68-10.3L199.68-10.3Q199.68-7.1 201.48-5.5 203.28-3.9 206.68-3.9ZM243.32-30.6L234.67-30.6 234.67-35 256.67-35 256.67-30.6 248.02-30.6 248.02 0 243.32 0 243.32-30.6ZM264.57 0L260.17 0 260.17-13.65Q260.17-19.4 262.32-21.6L262.32-21.6Q263.37-22.7 264.87-23.25 266.37-23.8 267.49-23.9 268.62-24 270.57-24L270.57-24 274.97-24 274.97-19.8 269.67-19.8Q268.67-19.8 268.12-19.75 267.57-19.7 266.82-19.4 266.07-19.1 265.52-18.45L265.52-18.45Q264.57-17.25 264.57-13.65L264.57-13.65 264.57 0ZM291.57-14.1L291.57-14.1 291.57-9.6Q289.67-11.05 286.92-11.05L286.92-11.05Q284.57-11.05 283.27-10.13 281.97-9.2 281.97-7.5L281.97-7.5Q281.97-4.2 286.87-4.2L286.87-4.2 293.47-4.2 293.47-13.75Q293.47-19.8 287.57-19.8L287.57-19.8 279.57-19.8 279.57-24 287.82-24Q292.67-24 295.27-21.6 297.87-19.2 297.87-14.7L297.87-14.7 297.87 0 286.72 0Q282.47 0 279.97-1.9 277.47-3.8 277.47-7.45 277.47-11.1 280.12-13 282.77-14.9 286.77-14.9L286.77-14.9Q289.02-14.9 291.57-14.1ZM322.11-4.2L322.11-35 326.61-35 326.61 0 314.86 0Q309.41 0 306.01-3.48 302.61-6.95 302.61-12.25L302.61-12.25Q302.61-17.45 306.14-20.98 309.66-24.5 314.51-24.5L314.51-24.5Q317.61-24.5 320.31-23L320.31-23 320.31-18.5Q317.81-20.3 314.51-20.3L314.51-20.3Q311.51-20.3 309.44-18.07 307.36-15.85 307.36-12.25L307.36-12.25Q307.36-8.6 309.34-6.4 311.31-4.2 314.86-4.2L314.86-4.2 322.11-4.2ZM344.36-24.5L344.36-24.5Q352.86-24.15 352.86-17.45L352.86-17.45Q352.86-9.1 341.91-9.1L341.91-9.1 339.86-9.1 339.86-12.95 342.26-12.95Q345.61-12.95 346.91-13.98 348.21-15 348.21-17.4L348.21-17.4Q348.21-18.95 347.06-19.73 345.91-20.5 344.11-20.5L344.11-20.5Q340.56-20.5 338.54-18 336.51-15.5 336.51-12L336.51-12Q336.51-8.3 338.69-6 340.86-3.7 344.36-3.7L344.36-3.7Q347.51-3.7 349.51-5.25L349.51-5.25 352.51-2.3Q349.06 0.5 344.36 0.5L344.36 0.5Q338.66 0.5 335.26-2.85 331.86-6.2 331.86-11.5L331.86-11.5Q331.86-17.4 335.21-21.05 338.56-24.7 344.36-24.5Z" opacity="1" transform="matrix(1,0,0,1,0,0)" fill="#000000" class="slogan-text-1" data-fill-palette-color="secondary" id="text-1"></path></svg></g></svg></g></svg></g></svg></g><g transform="matrix(1,0,0,1,86.62552922579498,0)"><svg viewBox="0 0 224.24654154840997 208.24654154840997" height="208.24654154840997" width="224.24654154840997"><g><svg xmlns="http://www.w3.org/2000/svg" xmlns:xlink="http://www.w3.org/1999/xlink" version="1.1" x="8" y="0" viewBox="0 0 128 128" style="enable-background:new 0 0 128 128;" xml:space="preserve" height="208.24654154840997" width="208.24654154840997" class="icon-icon-0" data-fill-palette-color="accent" id="icon-0"><path d="M87.2 71.4c-2.2 2.8-6.2 3.4-9.1 1.2-0.5-0.3-0.9-0.8-1.2-1.2-2.4 1.4-4.1 3.8-4.6 6.6h19.6C91.2 75.3 89.5 72.9 87.2 71.4z" fill="#111111" data-fill-palette-color="accent"></path><path d="M128 17.7c0-0.2-0.1-0.4-0.2-0.6l0 0c-0.1-0.2-0.2-0.3-0.3-0.5l0 0L112 0.6c-0.4-0.4-0.9-0.6-1.4-0.6H17.4c-0.5 0-1 0.2-1.4 0.6l-15.4 16c0 0.1-0.1 0.1-0.1 0.2l-0.1 0.1V17C0.1 17.3 0 17.6 0 18v108c0 1.1 0.9 2 2 2h124c1.1 0 2-0.9 2-2V18C128 17.9 128 17.8 128 17.7L128 17.7zM109.7 4l11.6 12h-14.9L98.7 4H109.7zM94 4l7.7 12H86.1L82.3 4H94zM66 4h12.1l3.8 12H66V4zM49.9 4H62v12H46.1L49.9 4zM45.7 4l-3.8 12H26.3L34 4H45.7zM18.3 4h11l-7.7 12H6.7L18.3 4zM40 112c0 1.1-0.9 2-2 2s-2-0.9-2-2V60.8c0-6.6-5.4-12-12-12s-12 5.4-12 12V124H8V60.8c0-8.8 7.2-16 16-16s16 7.2 16 16V112zM119.3 57.9c-0.4 0.1-0.8 0.1-1.3 0.1v56c0 2.2-1.8 4-4 4H49c-2.2 0-4-1.8-4-4V73c0-1.1 0.9-2 2-2s2 0.9 2 2v41h65V58H49v5c0 1.1-0.9 2-2 2s-2-0.9-2-2v-5c-1.1 0-2-0.9-2-2 0-0.3 0.1-0.6 0.2-0.9l7.3-14c0.3-0.7 1-1.1 1.8-1.1h9.8c1.1-0.1 2.1 0.7 2.2 1.8 0 0.4 0 0.8-0.2 1.1L58.3 54h47.4l-5.2-10H72c-1.1 0-2-0.9-2-2s0.9-2 2-2h39.7c0.7 0 1.4 0.4 1.8 1.1l7.3 14c0.5 1 0.1 2.2-0.9 2.7C119.7 57.8 119.5 57.9 119.3 57.9zM75.5 67.5c0-3.6 2.9-6.5 6.5-6.5s6.5 2.9 6.5 6.5c0 0 0 0.1 0 0.1 4 2.1 6.7 5.9 7.3 10.4H109c1.1 0 2 0.9 2 2s-0.9 2-2 2H54c-1.1 0-2-0.9-2-2s0.9-2 2-2h14.2c0.6-4.4 3.4-8.3 7.4-10.4C75.5 67.6 75.5 67.5 75.5 67.5zM54 106h55c1.1 0 2 0.9 2 2s-0.9 2-2 2H54c-1.1 0-2-0.9-2-2S52.9 106 54 106zM124 25c-0.2 4.6-4 8.2-8.6 8-4.4-0.2-7.9-3.7-8-8 0-1.1-0.9-2-2-2s-2 0.9-2 2c-0.2 4.6-4.1 8.1-8.7 7.9-4.3-0.2-7.7-3.6-7.9-7.9 0-1.1-0.9-2-2-2s-2 0.9-2 2c-0.2 4.6-4 8.2-8.6 8-4.4-0.2-7.9-3.7-8-8 0-1.1-0.9-2-2-2s-2 0.9-2 2c-0.2 4.6-4 8.2-8.6 8-4.4-0.2-7.9-3.7-8-8 0-1.1-0.9-2-2-2s-2 0.9-2 2c-0.2 4.6-4.1 8.1-8.7 7.9-4.3-0.2-7.7-3.6-7.9-7.9 0-1.1-0.9-2-2-2s-2 0.9-2 2c-0.1 4.5-3.8 8.1-8.3 8-4.5 0.1-8.2-3.5-8.3-8v-5h120V25z" fill="#111111" data-fill-palette-color="accent"></path><circle cx="82" cy="67.5" r="2.5" fill="#111111" data-fill-palette-color="accent"></circle><polygon points="105,44 110.2,54 115.7,54 110.5,44 " fill="#111111" data-fill-palette-color="accent"></polygon><polygon points="53.5,44 48.3,54 53.8,54 59,44 " fill="#111111" data-fill-palette-color="accent"></polygon></svg></g></svg></g><g></g></svg></g><defs></defs></svg><rect width="238.17055217760094" height="247.2" fill="none" stroke="none" visibility="hidden"></rect></g></svg></g></svg>